<svg xmlns="http://www.w3.org/2000/svg" xml:space="preserve" fill-rule="evenodd" stroke-linejoin="round" stroke-miterlimit="2" clip-rule="evenodd" viewBox="0 0 64 64"><path fill="#bfd732" d="M0 0h64v64H0z"/><path fill="#fff" d="M23.93 40.02c-4.89 0-7.93-4.16-7.93-8.65 0-4.73 2.72-8.57 7.93-8.57 3.85 0 6.8 2.24 7.05 5.52H27.6c-.15-1.52-1.76-2.72-3.6-2.72-2.72 0-4.5 2.08-4.5 5.93 0 2.64 1.37 5.6 4.5 5.6 2.89 0 3.93-1.44 3.93-3.68h-3.62V30.8h6.74v2.72c-.08 3.77-1.76 6.49-7.13 6.49ZM35 21.6l12.6 9.58c.09 0 .09.08.18.17a.99.99 0 0 1-.17 1.38l-12.7 9.67c-.18.08-.44.16-.6.08-.44-.08-.61-.52-.52-.95l1.55-2.25a13.2 13.2 0 0 0 0-14.58l-1.54-2.23c-.1-.17 0-.43.08-.6.26-.34.78-.52 1.12-.26v-.01Z"/></svg>